<svg width="144" height="26" viewBox="0 0 144 26" fill="none" xmlns="http://www.w3.org/2000/svg">
<path fill-rule="evenodd" clip-rule="evenodd" d="M10.0002 5.70866C8.38936 5.70866 7.08353 7.0145 7.08353 8.62533C7.08353 10.2362 8.38936 11.542 10.0002 11.542C11.611 11.542 12.9169 10.2362 12.9169 8.62533C12.9169 7.0145 11.611 5.70866 10.0002 5.70866ZM5.41686 8.62533C5.41686 6.09402 7.46889 4.04199 10.0002 4.04199C12.5315 4.04199 14.5835 6.09402 14.5835 8.62533C14.5835 11.1566 12.5315 13.2087 10.0002 13.2087C7.46889 13.2087 5.41686 11.1566 5.41686 8.62533Z" fill="#424551"/>
<path fill-rule="evenodd" clip-rule="evenodd" d="M5.08691 15.7087C4.50914 15.7087 4.05755 15.99 3.87424 16.3942C3.62053 16.9536 3.39078 17.6196 3.33656 18.2513C3.31233 18.5337 3.43006 18.7418 3.5923 18.8426C4.44993 19.3753 6.43719 20.292 10.0002 20.292C13.5632 20.292 15.5505 19.3753 16.4081 18.8426C16.5703 18.7418 16.6881 18.5337 16.6638 18.2513C16.6096 17.6196 16.3799 16.9536 16.1261 16.3942C15.9428 15.99 15.4912 15.7087 14.9135 15.7087H5.08691ZM2.35639 15.7058C2.86301 14.5887 3.99428 14.042 5.08691 14.042H14.9135C16.0061 14.042 17.1374 14.5887 17.644 15.7058C17.935 16.3474 18.2472 17.2099 18.3244 18.1088C18.3946 18.9273 18.0544 19.7819 17.2876 20.2583C16.1596 20.959 13.8665 21.9587 10.0002 21.9587C6.13386 21.9587 3.84078 20.959 2.71283 20.2583C1.94595 19.7819 1.60575 18.9273 1.676 18.1088C1.75315 17.2099 2.0654 16.3474 2.35639 15.7058Z" fill="#424551"/>
<path d="M36.064 17.224V19H29.288V7.432H31.44V17.224H36.064ZM40.4986 10.664C41.1066 10.664 41.6586 10.7627 42.1546 10.96C42.656 11.1573 43.0826 11.4373 43.4346 11.8C43.792 12.1627 44.0666 12.6053 44.2586 13.128C44.4506 13.6507 44.5466 14.2347 44.5466 14.88C44.5466 15.5307 44.4506 16.1173 44.2586 16.64C44.0666 17.1627 43.792 17.608 43.4346 17.976C43.0826 18.344 42.656 18.6267 42.1546 18.824C41.6586 19.0213 41.1066 19.12 40.4986 19.12C39.8853 19.12 39.328 19.0213 38.8266 18.824C38.3253 18.6267 37.896 18.344 37.5386 17.976C37.1866 17.608 36.912 17.1627 36.7146 16.64C36.5226 16.1173 36.4266 15.5307 36.4266 14.88C36.4266 14.2347 36.5226 13.6507 36.7146 13.128C36.912 12.6053 37.1866 12.1627 37.5386 11.8C37.896 11.4373 38.3253 11.1573 38.8266 10.96C39.328 10.7627 39.8853 10.664 40.4986 10.664ZM40.4986 17.6C41.1813 17.6 41.6853 17.3707 42.0106 16.912C42.3413 16.4533 42.5066 15.7813 42.5066 14.896C42.5066 14.0107 42.3413 13.336 42.0106 12.872C41.6853 12.408 41.1813 12.176 40.4986 12.176C39.8053 12.176 39.2906 12.4107 38.9546 12.88C38.624 13.344 38.4586 14.016 38.4586 14.896C38.4586 15.776 38.624 16.448 38.9546 16.912C39.2906 17.3707 39.8053 17.6 40.4986 17.6ZM48.9916 14.696C49.237 14.696 49.4503 14.664 49.6316 14.6C49.813 14.5307 49.9623 14.4373 50.0796 14.32C50.2023 14.2027 50.293 14.0613 50.3516 13.896C50.4156 13.7307 50.4476 13.5493 50.4476 13.352C50.4476 12.9467 50.325 12.6267 50.0796 12.392C49.8396 12.152 49.477 12.032 48.9916 12.032C48.5063 12.032 48.141 12.152 47.8956 12.392C47.6556 12.6267 47.5356 12.9467 47.5356 13.352C47.5356 13.544 47.565 13.7227 47.6236 13.888C47.6876 14.0533 47.7783 14.1973 47.8956 14.32C48.0183 14.4373 48.1703 14.5307 48.3516 14.6C48.5383 14.664 48.7516 14.696 48.9916 14.696ZM51.2236 19.368C51.2236 19.208 51.1756 19.0773 51.0796 18.976C50.9836 18.8747 50.853 18.7973 50.6876 18.744C50.5223 18.6853 50.3276 18.6427 50.1036 18.616C49.885 18.5893 49.6503 18.5707 49.3996 18.56C49.1543 18.544 48.8983 18.5307 48.6316 18.52C48.3703 18.5093 48.1143 18.488 47.8636 18.456C47.645 18.5787 47.4663 18.7227 47.3276 18.888C47.1943 19.0533 47.1276 19.2453 47.1276 19.464C47.1276 19.608 47.1623 19.7413 47.2316 19.864C47.3063 19.992 47.421 20.1013 47.5756 20.192C47.7356 20.2827 47.941 20.352 48.1916 20.4C48.4423 20.4533 48.749 20.48 49.1116 20.48C49.4796 20.48 49.797 20.4507 50.0636 20.392C50.3303 20.3387 50.549 20.2613 50.7196 20.16C50.8956 20.064 51.0236 19.9467 51.1036 19.808C51.1836 19.6747 51.2236 19.528 51.2236 19.368ZM53.1916 11.072V11.808C53.1916 12.0427 53.0503 12.1867 52.7676 12.24L52.0316 12.376C52.1436 12.6587 52.1996 12.968 52.1996 13.304C52.1996 13.7093 52.117 14.0773 51.9516 14.408C51.7916 14.7333 51.5676 15.0107 51.2796 15.24C50.9916 15.4693 50.6503 15.648 50.2556 15.776C49.8663 15.8987 49.445 15.96 48.9916 15.96C48.8316 15.96 48.677 15.952 48.5276 15.936C48.3783 15.92 48.2316 15.8987 48.0876 15.872C47.8316 16.0267 47.7036 16.2 47.7036 16.392C47.7036 16.5573 47.7783 16.68 47.9276 16.76C48.0823 16.8347 48.285 16.888 48.5356 16.92C48.7863 16.952 49.0716 16.9733 49.3916 16.984C49.7116 16.9893 50.0396 17.0053 50.3756 17.032C50.7116 17.0587 51.0396 17.1067 51.3596 17.176C51.6796 17.24 51.965 17.344 52.2156 17.488C52.4663 17.632 52.6663 17.8293 52.8156 18.08C52.9703 18.3253 53.0476 18.6427 53.0476 19.032C53.0476 19.3947 52.957 19.7467 52.7756 20.088C52.5996 20.4293 52.341 20.7333 51.9996 21C51.6636 21.2667 51.2476 21.48 50.7516 21.64C50.261 21.8053 49.701 21.888 49.0716 21.888C48.453 21.888 47.9143 21.8267 47.4556 21.704C46.997 21.5867 46.6156 21.4267 46.3116 21.224C46.0076 21.0267 45.781 20.7973 45.6316 20.536C45.4823 20.2747 45.4076 20.0027 45.4076 19.72C45.4076 19.336 45.5223 19.016 45.7516 18.76C45.9863 18.4987 46.3063 18.2907 46.7116 18.136C46.493 18.024 46.3196 17.8747 46.1916 17.688C46.0636 17.5013 45.9996 17.256 45.9996 16.952C45.9996 16.8293 46.021 16.704 46.0636 16.576C46.1116 16.4427 46.1783 16.312 46.2636 16.184C46.3543 16.056 46.4663 15.936 46.5996 15.824C46.733 15.7067 46.8903 15.6027 47.0716 15.512C46.6556 15.288 46.3276 14.9893 46.0876 14.616C45.853 14.2427 45.7356 13.8053 45.7356 13.304C45.7356 12.8987 45.8156 12.5333 45.9756 12.208C46.141 11.8773 46.3676 11.5973 46.6556 11.368C46.949 11.1333 47.293 10.9547 47.6876 10.832C48.0876 10.7093 48.5223 10.648 48.9916 10.648C49.3436 10.648 49.6743 10.6853 49.9836 10.76C50.293 10.8293 50.5756 10.9333 50.8316 11.072H53.1916ZM60.3834 10.792V19H58.3994V10.792H60.3834ZM60.6554 8.4C60.6554 8.57067 60.6207 8.73067 60.5514 8.88C60.482 9.02933 60.3887 9.16 60.2714 9.272C60.1594 9.384 60.026 9.47467 59.8714 9.544C59.7167 9.608 59.5514 9.64 59.3754 9.64C59.2047 9.64 59.042 9.608 58.8874 9.544C58.738 9.47467 58.6074 9.384 58.4954 9.272C58.3834 9.16 58.2927 9.02933 58.2234 8.88C58.1594 8.73067 58.1274 8.57067 58.1274 8.4C58.1274 8.224 58.1594 8.05867 58.2234 7.904C58.2927 7.74933 58.3834 7.616 58.4954 7.504C58.6074 7.392 58.738 7.304 58.8874 7.24C59.042 7.17067 59.2047 7.136 59.3754 7.136C59.5514 7.136 59.7167 7.17067 59.8714 7.24C60.026 7.304 60.1594 7.392 60.2714 7.504C60.3887 7.616 60.482 7.74933 60.5514 7.904C60.6207 8.05867 60.6554 8.224 60.6554 8.4ZM64.2459 11.8C64.4112 11.6347 64.5845 11.4827 64.7659 11.344C64.9525 11.2 65.1472 11.08 65.3499 10.984C65.5579 10.8827 65.7792 10.8053 66.0139 10.752C66.2485 10.6933 66.5045 10.664 66.7819 10.664C67.2299 10.664 67.6272 10.7413 67.9739 10.896C68.3205 11.0453 68.6085 11.2587 68.8379 11.536C69.0725 11.808 69.2485 12.136 69.3659 12.52C69.4885 12.8987 69.5499 13.3173 69.5499 13.776V19H67.5739V13.776C67.5739 13.2747 67.4592 12.888 67.2299 12.616C67.0005 12.3387 66.6512 12.2 66.1819 12.2C65.8405 12.2 65.5205 12.2773 65.2219 12.432C64.9232 12.5867 64.6405 12.7973 64.3739 13.064V19H62.3979V10.792H63.6059C63.8619 10.792 64.0299 10.912 64.1099 11.152L64.2459 11.8ZM76.6957 19.024C76.6051 19.2693 76.4584 19.4533 76.2558 19.576C76.0584 19.6987 75.8558 19.76 75.6478 19.76H74.8078L79.4798 7.808C79.5651 7.584 79.6958 7.41333 79.8718 7.296C80.0478 7.17333 80.2531 7.112 80.4878 7.112H81.3358L76.6957 19.024ZM90.4715 12.936C90.8768 12.936 91.2288 12.8853 91.5275 12.784C91.8315 12.6827 92.0795 12.544 92.2715 12.368C92.4688 12.1867 92.6155 11.9733 92.7115 11.728C92.8075 11.4827 92.8555 11.2133 92.8555 10.92C92.8555 10.3333 92.6608 9.88267 92.2715 9.568C91.8875 9.25333 91.2982 9.096 90.5035 9.096H89.1275V12.936H90.4715ZM96.0075 19H94.0635C93.6955 19 93.4288 18.856 93.2635 18.568L90.8315 14.864C90.7408 14.7253 90.6395 14.6267 90.5275 14.568C90.4208 14.5093 90.2608 14.48 90.0475 14.48H89.1275V19H86.9755V7.432H90.5035C91.2875 7.432 91.9595 7.51467 92.5195 7.68C93.0848 7.84 93.5462 8.06667 93.9035 8.36C94.2662 8.65333 94.5328 9.00533 94.7035 9.416C94.8742 9.82133 94.9595 10.2693 94.9595 10.76C94.9595 11.1493 94.9008 11.5173 94.7835 11.864C94.6715 12.2107 94.5062 12.5253 94.2875 12.808C94.0742 13.0907 93.8075 13.3387 93.4875 13.552C93.1728 13.7653 92.8128 13.9333 92.4075 14.056C92.5462 14.136 92.6742 14.232 92.7915 14.344C92.9088 14.4507 93.0155 14.5787 93.1115 14.728L96.0075 19ZM101.702 13.952C101.702 13.696 101.664 13.456 101.59 13.232C101.52 13.0027 101.414 12.8027 101.27 12.632C101.126 12.4613 100.942 12.328 100.718 12.232C100.499 12.1307 100.243 12.08 99.9495 12.08C99.3788 12.08 98.9282 12.2427 98.5975 12.568C98.2722 12.8933 98.0642 13.3547 97.9735 13.952H101.702ZM97.9335 15.144C97.9655 15.5653 98.0402 15.9307 98.1575 16.24C98.2748 16.544 98.4295 16.7973 98.6215 17C98.8135 17.1973 99.0402 17.3467 99.3015 17.448C99.5682 17.544 99.8615 17.592 100.182 17.592C100.502 17.592 100.776 17.5547 101.006 17.48C101.24 17.4053 101.443 17.3227 101.614 17.232C101.79 17.1413 101.942 17.0587 102.07 16.984C102.203 16.9093 102.331 16.872 102.454 16.872C102.619 16.872 102.742 16.9333 102.822 17.056L103.39 17.776C103.171 18.032 102.926 18.248 102.654 18.424C102.382 18.5947 102.096 18.7333 101.798 18.84C101.504 18.9413 101.203 19.0133 100.894 19.056C100.59 19.0987 100.294 19.12 100.006 19.12C99.4348 19.12 98.9042 19.0267 98.4135 18.84C97.9228 18.648 97.4962 18.368 97.1335 18C96.7708 17.6267 96.4855 17.168 96.2775 16.624C96.0695 16.0747 95.9655 15.44 95.9655 14.72C95.9655 14.16 96.0562 13.6347 96.2375 13.144C96.4188 12.648 96.6775 12.2187 97.0135 11.856C97.3548 11.488 97.7682 11.1973 98.2535 10.984C98.7442 10.7707 99.2962 10.664 99.9095 10.664C100.427 10.664 100.904 10.7467 101.342 10.912C101.779 11.0773 102.155 11.32 102.47 11.64C102.784 11.9547 103.03 12.344 103.206 12.808C103.387 13.2667 103.477 13.792 103.477 14.384C103.477 14.6827 103.446 14.8853 103.382 14.992C103.318 15.0933 103.195 15.144 103.014 15.144H97.9335ZM107.96 14.696C108.206 14.696 108.419 14.664 108.6 14.6C108.782 14.5307 108.931 14.4373 109.048 14.32C109.171 14.2027 109.262 14.0613 109.32 13.896C109.384 13.7307 109.416 13.5493 109.416 13.352C109.416 12.9467 109.294 12.6267 109.048 12.392C108.808 12.152 108.446 12.032 107.96 12.032C107.475 12.032 107.11 12.152 106.864 12.392C106.624 12.6267 106.504 12.9467 106.504 13.352C106.504 13.544 106.534 13.7227 106.592 13.888C106.656 14.0533 106.747 14.1973 106.864 14.32C106.987 14.4373 107.139 14.5307 107.32 14.6C107.507 14.664 107.72 14.696 107.96 14.696ZM110.192 19.368C110.192 19.208 110.144 19.0773 110.048 18.976C109.952 18.8747 109.822 18.7973 109.656 18.744C109.491 18.6853 109.296 18.6427 109.072 18.616C108.854 18.5893 108.619 18.5707 108.368 18.56C108.123 18.544 107.867 18.5307 107.6 18.52C107.339 18.5093 107.083 18.488 106.832 18.456C106.614 18.5787 106.435 18.7227 106.296 18.888C106.163 19.0533 106.096 19.2453 106.096 19.464C106.096 19.608 106.131 19.7413 106.2 19.864C106.275 19.992 106.39 20.1013 106.544 20.192C106.704 20.2827 106.91 20.352 107.16 20.4C107.411 20.4533 107.718 20.48 108.08 20.48C108.448 20.48 108.766 20.4507 109.032 20.392C109.299 20.3387 109.518 20.2613 109.688 20.16C109.864 20.064 109.992 19.9467 110.072 19.808C110.152 19.6747 110.192 19.528 110.192 19.368ZM112.16 11.072V11.808C112.16 12.0427 112.019 12.1867 111.736 12.24L111 12.376C111.112 12.6587 111.168 12.968 111.168 13.304C111.168 13.7093 111.086 14.0773 110.92 14.408C110.76 14.7333 110.536 15.0107 110.248 15.24C109.96 15.4693 109.619 15.648 109.224 15.776C108.835 15.8987 108.414 15.96 107.96 15.96C107.8 15.96 107.646 15.952 107.496 15.936C107.347 15.92 107.2 15.8987 107.056 15.872C106.8 16.0267 106.672 16.2 106.672 16.392C106.672 16.5573 106.747 16.68 106.896 16.76C107.051 16.8347 107.254 16.888 107.504 16.92C107.755 16.952 108.04 16.9733 108.36 16.984C108.68 16.9893 109.008 17.0053 109.344 17.032C109.68 17.0587 110.008 17.1067 110.328 17.176C110.648 17.24 110.934 17.344 111.184 17.488C111.435 17.632 111.635 17.8293 111.784 18.08C111.939 18.3253 112.016 18.6427 112.016 19.032C112.016 19.3947 111.926 19.7467 111.744 20.088C111.568 20.4293 111.31 20.7333 110.968 21C110.632 21.2667 110.216 21.48 109.72 21.64C109.23 21.8053 108.67 21.888 108.04 21.888C107.422 21.888 106.883 21.8267 106.424 21.704C105.966 21.5867 105.584 21.4267 105.28 21.224C104.976 21.0267 104.75 20.7973 104.6 20.536C104.451 20.2747 104.376 20.0027 104.376 19.72C104.376 19.336 104.491 19.016 104.72 18.76C104.955 18.4987 105.275 18.2907 105.68 18.136C105.462 18.024 105.288 17.8747 105.16 17.688C105.032 17.5013 104.968 17.256 104.968 16.952C104.968 16.8293 104.99 16.704 105.032 16.576C105.08 16.4427 105.147 16.312 105.232 16.184C105.323 16.056 105.435 15.936 105.568 15.824C105.702 15.7067 105.859 15.6027 106.04 15.512C105.624 15.288 105.296 14.9893 105.056 14.616C104.822 14.2427 104.704 13.8053 104.704 13.304C104.704 12.8987 104.784 12.5333 104.944 12.208C105.11 11.8773 105.336 11.5973 105.624 11.368C105.918 11.1333 106.262 10.9547 106.656 10.832C107.056 10.7093 107.491 10.648 107.96 10.648C108.312 10.648 108.643 10.6853 108.952 10.76C109.262 10.8293 109.544 10.9333 109.8 11.072H112.16ZM115.462 10.792V19H113.478V10.792H115.462ZM115.734 8.4C115.734 8.57067 115.699 8.73067 115.63 8.88C115.56 9.02933 115.467 9.16 115.35 9.272C115.238 9.384 115.104 9.47467 114.95 9.544C114.795 9.608 114.63 9.64 114.454 9.64C114.283 9.64 114.12 9.608 113.966 9.544C113.816 9.47467 113.686 9.384 113.574 9.272C113.462 9.16 113.371 9.02933 113.302 8.88C113.238 8.73067 113.206 8.57067 113.206 8.4C113.206 8.224 113.238 8.05867 113.302 7.904C113.371 7.74933 113.462 7.616 113.574 7.504C113.686 7.392 113.816 7.304 113.966 7.24C114.12 7.17067 114.283 7.136 114.454 7.136C114.63 7.136 114.795 7.17067 114.95 7.24C115.104 7.304 115.238 7.392 115.35 7.504C115.467 7.616 115.56 7.74933 115.63 7.904C115.699 8.05867 115.734 8.224 115.734 8.4ZM122.484 12.392C122.431 12.4773 122.375 12.5387 122.316 12.576C122.257 12.608 122.183 12.624 122.092 12.624C121.996 12.624 121.892 12.5973 121.78 12.544C121.673 12.4907 121.548 12.432 121.404 12.368C121.26 12.2987 121.095 12.2373 120.908 12.184C120.727 12.1307 120.511 12.104 120.26 12.104C119.871 12.104 119.564 12.1867 119.34 12.352C119.121 12.5173 119.012 12.7333 119.012 13C119.012 13.176 119.068 13.3253 119.18 13.448C119.297 13.5653 119.449 13.6693 119.636 13.76C119.828 13.8507 120.044 13.9333 120.284 14.008C120.524 14.0773 120.767 14.1547 121.012 14.24C121.263 14.3253 121.508 14.424 121.748 14.536C121.988 14.6427 122.201 14.7813 122.388 14.952C122.58 15.1173 122.732 15.3173 122.844 15.552C122.961 15.7867 123.02 16.0693 123.02 16.4C123.02 16.7947 122.948 17.16 122.804 17.496C122.665 17.8267 122.457 18.1147 122.18 18.36C121.903 18.6 121.559 18.7893 121.148 18.928C120.743 19.0613 120.273 19.128 119.74 19.128C119.457 19.128 119.18 19.1013 118.908 19.048C118.641 19 118.383 18.9307 118.132 18.84C117.887 18.7493 117.657 18.6427 117.444 18.52C117.236 18.3973 117.052 18.264 116.892 18.12L117.348 17.368C117.407 17.2773 117.476 17.208 117.556 17.16C117.636 17.112 117.737 17.088 117.86 17.088C117.983 17.088 118.097 17.1227 118.204 17.192C118.316 17.2613 118.444 17.336 118.588 17.416C118.732 17.496 118.9 17.5707 119.092 17.64C119.289 17.7093 119.537 17.744 119.836 17.744C120.071 17.744 120.271 17.7173 120.436 17.664C120.607 17.6053 120.745 17.5307 120.852 17.44C120.964 17.3493 121.044 17.2453 121.092 17.128C121.145 17.0053 121.172 16.88 121.172 16.752C121.172 16.56 121.113 16.4027 120.996 16.28C120.884 16.1573 120.732 16.0507 120.54 15.96C120.353 15.8693 120.137 15.7893 119.892 15.72C119.652 15.6453 119.404 15.5653 119.148 15.48C118.897 15.3947 118.649 15.296 118.404 15.184C118.164 15.0667 117.948 14.92 117.756 14.744C117.569 14.568 117.417 14.352 117.3 14.096C117.188 13.84 117.132 13.5307 117.132 13.168C117.132 12.832 117.199 12.512 117.332 12.208C117.465 11.904 117.66 11.64 117.916 11.416C118.177 11.1867 118.5 11.0053 118.884 10.872C119.273 10.7333 119.721 10.664 120.228 10.664C120.793 10.664 121.308 10.7573 121.772 10.944C122.236 11.1307 122.623 11.376 122.932 11.68L122.484 12.392ZM127.243 19.128C126.529 19.128 125.979 18.928 125.595 18.528C125.217 18.1227 125.027 17.5653 125.027 16.856V12.272H124.187C124.081 12.272 123.99 12.2373 123.915 12.168C123.841 12.0987 123.803 11.9947 123.803 11.856V11.072L125.123 10.856L125.539 8.616C125.566 8.50933 125.617 8.42667 125.691 8.368C125.766 8.30933 125.862 8.28 125.979 8.28H127.003V10.864H129.195V12.272H127.003V16.72C127.003 16.976 127.065 17.176 127.187 17.32C127.315 17.464 127.489 17.536 127.707 17.536C127.83 17.536 127.931 17.5227 128.011 17.496C128.097 17.464 128.169 17.432 128.227 17.4C128.291 17.368 128.347 17.3387 128.395 17.312C128.443 17.28 128.491 17.264 128.539 17.264C128.598 17.264 128.646 17.28 128.683 17.312C128.721 17.3387 128.761 17.3813 128.803 17.44L129.395 18.4C129.107 18.64 128.777 18.8213 128.403 18.944C128.03 19.0667 127.643 19.128 127.243 19.128ZM135.686 13.952C135.686 13.696 135.649 13.456 135.574 13.232C135.505 13.0027 135.398 12.8027 135.254 12.632C135.11 12.4613 134.926 12.328 134.702 12.232C134.483 12.1307 134.227 12.08 133.934 12.08C133.363 12.08 132.913 12.2427 132.582 12.568C132.257 12.8933 132.049 13.3547 131.958 13.952H135.686ZM131.918 15.144C131.95 15.5653 132.025 15.9307 132.142 16.24C132.259 16.544 132.414 16.7973 132.606 17C132.798 17.1973 133.025 17.3467 133.286 17.448C133.553 17.544 133.846 17.592 134.166 17.592C134.486 17.592 134.761 17.5547 134.99 17.48C135.225 17.4053 135.427 17.3227 135.598 17.232C135.774 17.1413 135.926 17.0587 136.054 16.984C136.187 16.9093 136.315 16.872 136.438 16.872C136.603 16.872 136.726 16.9333 136.806 17.056L137.374 17.776C137.155 18.032 136.91 18.248 136.638 18.424C136.366 18.5947 136.081 18.7333 135.782 18.84C135.489 18.9413 135.187 19.0133 134.878 19.056C134.574 19.0987 134.278 19.12 133.99 19.12C133.419 19.12 132.889 19.0267 132.398 18.84C131.907 18.648 131.481 18.368 131.118 18C130.755 17.6267 130.47 17.168 130.262 16.624C130.054 16.0747 129.95 15.44 129.95 14.72C129.95 14.16 130.041 13.6347 130.222 13.144C130.403 12.648 130.662 12.2187 130.998 11.856C131.339 11.488 131.753 11.1973 132.238 10.984C132.729 10.7707 133.281 10.664 133.894 10.664C134.411 10.664 134.889 10.7467 135.326 10.912C135.763 11.0773 136.139 11.32 136.454 11.64C136.769 11.9547 137.014 12.344 137.19 12.808C137.371 13.2667 137.462 13.792 137.462 14.384C137.462 14.6827 137.43 14.8853 137.366 14.992C137.302 15.0933 137.179 15.144 136.998 15.144H131.918ZM140.809 12.216C141.065 11.7253 141.369 11.3413 141.721 11.064C142.073 10.7813 142.489 10.64 142.969 10.64C143.347 10.64 143.651 10.7227 143.881 10.888L143.753 12.368C143.726 12.464 143.686 12.5333 143.633 12.576C143.585 12.6133 143.518 12.632 143.433 12.632C143.353 12.632 143.233 12.6187 143.073 12.592C142.918 12.5653 142.766 12.552 142.617 12.552C142.398 12.552 142.203 12.584 142.033 12.648C141.862 12.712 141.707 12.8053 141.569 12.928C141.435 13.0453 141.315 13.1893 141.209 13.36C141.107 13.5307 141.011 13.7253 140.921 13.944V19H138.945V10.792H140.105C140.307 10.792 140.449 10.8293 140.529 10.904C140.609 10.9733 140.662 11.1013 140.689 11.288L140.809 12.216Z" fill="#424551"/>
</svg>
